<svg width="80" height="28" viewBox="0 0 80 28" fill="none" xmlns="http://www.w3.org/2000/svg">
<path d="M78.9325 8.46705C79.2589 8.56305 79.4701 8.74544 79.5661 9.01424C79.6621 9.26383 79.6909 9.53262 79.6525 9.82062C79.5373 10.4158 79.2109 10.7806 78.6733 10.915C78.3661 10.9918 78.0494 11.0302 77.723 11.0302C77.4158 11.0302 77.099 11.0398 76.7726 11.059V17.7116C76.7726 18.1724 76.7438 18.6428 76.6862 19.1228C76.6862 19.2956 76.6382 19.478 76.5422 19.67C76.5038 19.766 76.475 19.8236 76.4558 19.8428C76.4558 19.8812 76.4366 19.9388 76.3982 20.0156C76.283 20.2268 76.1294 20.3996 75.9374 20.534C75.515 20.7644 75.0638 20.822 74.5838 20.7068C74.2958 20.6492 74.075 20.5532 73.9214 20.4188C73.7486 20.2844 73.6239 20.1212 73.5471 19.9292C73.5087 19.8332 73.4799 19.7372 73.4607 19.6412C73.4415 19.5452 73.4127 19.4492 73.3743 19.3532C73.3551 19.2572 73.3359 19.1708 73.3167 19.094C73.3167 18.998 73.3167 18.9212 73.3167 18.8636V17.1933C73.3167 16.1949 73.3167 15.1581 73.3167 14.0829C73.3359 13.0077 73.3455 11.971 73.3455 10.9726C72.9039 10.9534 72.4431 10.9438 71.9631 10.9438C71.5023 10.9246 71.1663 10.8094 70.9551 10.5982C70.8399 10.483 70.7631 10.339 70.7247 10.1662C70.6863 9.97421 70.6671 9.78222 70.6671 9.59022C70.6863 9.39823 70.7247 9.22543 70.7823 9.07183C70.8399 8.89904 70.9167 8.77424 71.0127 8.69744C71.2623 8.46705 71.4831 8.34225 71.6751 8.32305C71.8863 8.28465 72.1455 8.25585 72.4527 8.23665C72.4911 8.23665 72.6159 8.23665 72.8271 8.23665C73.0575 8.21745 73.2015 8.20785 73.2591 8.20785C73.2783 7.55507 73.2975 6.90228 73.3167 6.2495C73.3359 5.59671 73.3935 5.00152 73.4895 4.46394C73.6047 3.90715 73.7678 3.42716 73.979 3.02397C74.2094 2.60158 74.555 2.28478 75.0158 2.07359C75.5726 1.82399 76.2062 1.6704 76.9166 1.6128C77.627 1.5552 78.2701 1.6416 78.8461 1.87199C79.1149 1.96799 79.3741 2.15999 79.6237 2.44798C79.8925 2.73597 80.0173 3.05277 79.9981 3.39836C79.9789 3.74395 79.9117 4.06074 79.7965 4.34874C79.6813 4.63673 79.4317 4.82873 79.0477 4.92473C78.8749 4.96312 78.6925 4.98232 78.5005 4.98232C78.3277 4.96312 78.1453 4.95353 77.9534 4.95353C77.7614 4.95353 77.579 4.98232 77.4062 5.03992C77.2526 5.07832 77.1182 5.16472 77.003 5.29912C76.907 5.41432 76.8398 5.56791 76.8014 5.75991C76.7822 5.9519 76.763 6.1535 76.7438 6.36469C76.7246 6.57589 76.715 6.78709 76.715 6.99828C76.7342 7.19028 76.7438 7.35347 76.7438 7.48787V8.20785C77.1854 8.24625 77.5886 8.27505 77.9534 8.29425C78.3373 8.31345 78.6637 8.37105 78.9325 8.46705Z" fill="#4F46E5"/>
<path d="M66.0402 0.518475C66.405 0.422477 66.7218 0.412877 66.9906 0.489676C67.2786 0.547275 67.5186 0.672073 67.7106 0.864068C67.9218 1.05606 68.0754 1.29606 68.1714 1.58405C68.2866 1.87205 68.3442 2.18884 68.3442 2.53443C68.3634 3.49441 68.3634 4.24319 68.3442 4.78078C68.3442 5.31837 68.3442 5.78876 68.3442 6.19195V15.0334C68.3442 16.0701 68.3442 16.9341 68.3442 17.6253C68.3442 18.3165 68.3058 18.8829 68.229 19.3245C68.1714 19.7468 68.0562 20.0636 67.8834 20.2748C67.7298 20.486 67.4898 20.63 67.1634 20.7068C66.837 20.8028 66.405 20.8508 65.8674 20.8508C65.349 20.8508 64.6962 20.8508 63.9091 20.8508C61.8355 20.8508 60.1939 20.3612 58.9844 19.3821C57.794 18.4029 57.1604 16.8477 57.0836 14.7166C57.0452 13.795 57.1604 12.9502 57.4292 12.1822C57.698 11.4142 58.0916 10.7614 58.61 10.2239C59.1476 9.66707 59.8004 9.24468 60.5683 8.95669C61.3555 8.6495 62.2483 8.5055 63.2467 8.5247H64.8306V3.36961C64.8306 3.06242 64.8306 2.76483 64.8306 2.47683C64.8306 2.16964 64.8594 1.89125 64.917 1.64165C64.9746 1.37286 65.0898 1.14246 65.2626 0.950467C65.4354 0.758471 65.6946 0.614474 66.0402 0.518475ZM61.0291 16.5021C61.4323 17.0589 62.1619 17.3661 63.2179 17.4237C63.4291 17.4429 63.6307 17.4525 63.8227 17.4525C64.0147 17.4333 64.1875 17.4045 64.3411 17.3661C64.5138 17.3469 64.677 17.3181 64.8306 17.2797V11.9518C64.1587 11.8366 63.5443 11.7694 62.9875 11.7502C62.4499 11.7118 61.9123 11.9038 61.3747 12.3262C61.0867 12.5566 60.8659 12.8542 60.7123 13.219C60.5587 13.5646 60.4723 13.939 60.4531 14.3422C60.4339 14.7262 60.4723 15.1102 60.5683 15.4941C60.6643 15.8781 60.8179 16.2141 61.0291 16.5021Z" fill="#4F46E5"/>
<path d="M50.9441 7.68943C51.5009 7.91982 52.0097 8.25582 52.4704 8.69741C52.9312 9.1198 53.3248 9.60939 53.6512 10.1662C53.9968 10.723 54.256 11.3277 54.4288 11.9805C54.6208 12.6141 54.7168 13.2573 54.7168 13.9101C54.736 14.8893 54.5056 15.8108 54.0256 16.6748C53.5648 17.5388 52.8064 18.2012 51.7505 18.662C50.9441 18.9884 50.1089 19.238 49.2449 19.4108C48.4001 19.5644 47.5169 19.67 46.5954 19.7276V24.9978C46.5954 25.113 46.5762 25.2186 46.5378 25.3146C46.5186 25.4106 46.509 25.5066 46.509 25.6026C46.4706 25.7946 46.4226 25.9674 46.365 26.121C46.3266 26.2746 46.269 26.4378 46.1922 26.6106C46.1154 26.7258 46.0386 26.8314 45.9618 26.9274C45.885 27.0234 45.7986 27.1194 45.7026 27.2154C45.2418 27.4458 44.7618 27.4938 44.2626 27.3594C43.9554 27.3402 43.7058 27.2442 43.5138 27.0714C43.341 26.8986 43.2162 26.7162 43.1394 26.5242C43.0626 26.3322 42.9954 26.1114 42.9378 25.8618C42.9186 25.7658 42.8994 25.6698 42.8802 25.5738C42.8802 25.497 42.8802 25.4106 42.8802 25.3146V9.27339C42.8802 9.1582 42.8802 9.043 42.8802 8.9278C42.8994 8.7934 42.9186 8.65901 42.9378 8.52461C42.957 8.29421 43.0146 8.06382 43.1106 7.83342C43.2834 7.35343 43.6386 7.02704 44.1762 6.85425C44.7138 6.68145 45.3186 6.60465 45.9906 6.62385C46.4514 6.64305 46.9218 6.69105 47.4018 6.76785C47.9009 6.84465 48.3713 6.94064 48.8129 7.05584C49.2737 7.15184 49.6865 7.25744 50.0513 7.37263C50.4161 7.48783 50.7137 7.59343 50.9441 7.68943ZM51.0017 13.9101C51.0785 13.3725 51.0113 12.9213 50.8001 12.5565C50.6081 12.1725 50.3297 11.8653 49.9649 11.6349C49.6001 11.3853 49.1777 11.1933 48.6977 11.059C48.2369 10.9246 47.7761 10.8286 47.3154 10.771C47.2578 10.7518 47.1618 10.7422 47.0274 10.7422C46.9122 10.7422 46.7778 10.7422 46.6242 10.7422C46.6242 11.3565 46.6242 11.9517 46.6242 12.5277C46.6434 13.0845 46.6434 13.6893 46.6242 14.3421V16.2716C47.0658 16.2524 47.5265 16.2044 48.0065 16.1276C48.5057 16.0508 48.9665 15.926 49.3889 15.7532C49.8113 15.5805 50.1665 15.3501 50.4545 15.0621C50.7617 14.7741 50.9441 14.3901 51.0017 13.9101Z" fill="#4F46E5"/>
<path d="M38.2482 16.7036C38.4786 16.646 38.709 16.6076 38.9394 16.5884C39.189 16.5692 39.4097 16.598 39.6017 16.6748C39.8129 16.7516 39.9857 16.886 40.1201 17.078C40.2545 17.2508 40.3217 17.5004 40.3217 17.8268C40.3217 18.0572 40.2641 18.278 40.1489 18.4892C40.0337 18.7004 39.8897 18.8924 39.7169 19.0652C39.5441 19.238 39.3522 19.3916 39.141 19.526C38.9298 19.6412 38.7282 19.7372 38.5362 19.814C37.9794 20.0636 37.3362 20.2556 36.6066 20.3899C35.8962 20.5243 35.157 20.5723 34.3891 20.5339C33.3523 20.4955 32.3539 20.294 31.3939 19.9292C30.4531 19.5452 29.714 18.9212 29.1764 18.0572C28.6772 17.2124 28.3796 16.2716 28.2836 15.2349C28.1876 14.1981 28.2356 13.2189 28.4276 12.2973C28.6388 11.1838 28.994 10.2814 29.4932 9.59019C30.0116 8.8798 30.6259 8.31342 31.3363 7.89103C32.2003 7.39184 33.1699 7.13264 34.2451 7.11344C35.3202 7.09424 36.3474 7.30544 37.3266 7.74703C37.9794 8.03502 38.565 8.42861 39.0834 8.9278C39.6017 9.40779 39.9953 9.99338 40.2641 10.6846C40.3409 10.8574 40.3985 11.0686 40.4369 11.3182C40.4945 11.5677 40.5329 11.8365 40.5521 12.1245C40.5713 12.3933 40.5713 12.6621 40.5521 12.9309C40.5329 13.1997 40.4849 13.4397 40.4081 13.6509C40.2929 13.9965 40.1489 14.2653 39.9761 14.4573C39.8033 14.6493 39.5825 14.7933 39.3138 14.8893C39.045 14.9853 38.7186 15.0525 38.3346 15.0909C37.9698 15.1101 37.5282 15.1293 37.0098 15.1485C36.549 15.1677 36.117 15.1773 35.7138 15.1773C35.3106 15.1773 34.8978 15.1773 34.4755 15.1773C34.0531 15.1581 33.6115 15.1485 33.1507 15.1485C32.7091 15.1293 32.2099 15.1101 31.6531 15.0909C31.5955 15.4749 31.6435 15.8109 31.7971 16.0988C31.9699 16.3676 32.2003 16.598 32.4883 16.79C32.7763 16.9628 33.1027 17.0972 33.4675 17.1932C33.8323 17.2892 34.1875 17.3468 34.5331 17.366C35.1858 17.4044 35.8098 17.3564 36.405 17.222C37.0002 17.0684 37.6146 16.8956 38.2482 16.7036ZM37.0098 11.1166C36.645 10.6942 36.261 10.387 35.8578 10.195C35.5506 10.0606 35.2242 10.003 34.8786 10.0222C34.5523 10.0222 34.2355 10.0702 33.9283 10.1662C33.3715 10.3006 32.9011 10.5886 32.5171 11.0302C32.4787 11.0686 32.4115 11.1646 32.3155 11.3182C32.2195 11.4525 32.1235 11.5965 32.0275 11.7501C31.9507 11.9037 31.8931 12.0477 31.8547 12.1821C31.8163 12.3165 31.8355 12.3837 31.9123 12.3837H37.557C37.5378 12.1149 37.4898 11.8941 37.413 11.7213C37.3362 11.5293 37.2018 11.3277 37.0098 11.1166Z" fill="#4F46E5"/>
<path d="M25.9594 14.9757C25.9786 15.3597 25.9882 15.7628 25.9882 16.1852C25.9882 16.5884 25.9786 16.9628 25.9594 17.3084C25.9402 17.8268 25.9114 18.3068 25.873 18.7484C25.8346 19.1708 25.7578 19.5356 25.6426 19.8428C25.5274 20.1308 25.345 20.3515 25.0954 20.5051C24.865 20.6395 24.5386 20.6779 24.1163 20.6203C23.6747 20.5627 23.3579 20.3515 23.1659 19.9868C22.9739 19.622 22.8395 19.2092 22.7627 18.7484C22.7051 18.2684 22.6859 17.7884 22.7051 17.3084C22.7243 16.8284 22.7243 16.454 22.7051 16.1852C22.6859 15.7628 22.6667 15.2829 22.6475 14.7453C22.6475 14.1885 22.5899 13.6701 22.4747 13.1901C22.3787 12.6909 22.2059 12.2685 21.9563 11.9229C21.7067 11.5773 21.3323 11.3949 20.8331 11.3757C20.1995 11.3373 19.7099 11.3853 19.3644 11.5197C19.038 11.6541 18.798 11.8557 18.6444 12.1245C18.4908 12.3741 18.3948 12.6813 18.3564 13.0461C18.3372 13.4109 18.2988 13.8045 18.2412 14.2269L18.2124 15.3501V17.4524C18.2124 17.798 18.2028 18.1628 18.1836 18.5468C18.1836 18.9116 18.126 19.2476 18.0108 19.5548C17.8956 19.862 17.7132 20.1212 17.4636 20.3323C17.2332 20.5435 16.8876 20.6491 16.4268 20.6491C15.8508 20.6491 15.4188 20.4667 15.1309 20.102C14.8621 19.718 14.7277 19.2476 14.7277 18.6908V2.13115C14.7277 2.01595 14.7277 1.91036 14.7277 1.81436C14.7469 1.69916 14.7661 1.58396 14.7853 1.46877C14.8237 1.35357 14.8525 1.24797 14.8717 1.15197C14.8909 1.03678 14.9197 0.931179 14.9581 0.835181C15.0157 0.643186 15.1117 0.499189 15.246 0.403191C15.342 0.307193 15.438 0.230395 15.534 0.172796C15.63 0.115196 15.7356 0.0767975 15.8508 0.0575981C15.9468 0.0383988 16.0524 0.0287991 16.1676 0.0287991C16.2828 0.00959974 16.398 0 16.5132 0C16.8012 0 17.0796 0.0863983 17.3484 0.259195C17.4636 0.335992 17.5692 0.422389 17.6652 0.518387C17.7612 0.595185 17.838 0.710383 17.8956 0.86398C18.0492 1.22877 18.126 1.57436 18.126 1.90076C18.1452 1.99676 18.1548 2.14075 18.1548 2.33275C18.174 2.50554 18.1836 2.68794 18.1836 2.87994C18.1836 3.07193 18.1836 3.26393 18.1836 3.45592C18.2028 3.62872 18.2124 3.76312 18.2124 3.85911V4.00311C18.2316 4.6175 18.2412 5.24148 18.2412 5.87507C18.2412 6.50866 18.2412 7.15184 18.2412 7.80463V8.29422C19.0476 8.02542 19.8923 7.90062 20.7755 7.91982C21.6587 7.91982 22.4459 8.09262 23.1371 8.43821C23.8475 8.803 24.385 9.21579 24.7498 9.67658C25.1338 10.1374 25.4122 10.6462 25.585 11.203C25.7578 11.7597 25.8538 12.3549 25.873 12.9885C25.9114 13.6221 25.9402 14.2845 25.9594 14.9757Z" fill="#4F46E5"/>
<path d="M12.2877 7.9487C12.4413 8.31349 12.4509 8.71669 12.3165 9.15828C12.2013 9.59987 11.9805 9.88786 11.6541 10.0223C11.4813 10.0991 11.251 10.1663 10.963 10.2239C10.675 10.2623 10.3582 10.3007 10.0126 10.3391C9.68619 10.3774 9.35979 10.4062 9.0334 10.4254C8.70701 10.4446 8.42861 10.4542 8.19822 10.4542C8.21742 11.0302 8.23662 11.6254 8.25582 12.2398C8.27502 12.835 8.29422 13.4206 8.31342 13.9966C8.33262 14.5726 8.34222 15.1293 8.34222 15.6669C8.34222 16.1853 8.33262 16.6557 8.31342 17.0781C8.31342 17.3661 8.31342 17.7021 8.31342 18.0861C8.31342 18.4509 8.28462 18.8061 8.22702 19.1517C8.18862 19.4972 8.12142 19.8044 8.02542 20.0732C7.92942 20.3228 7.78543 20.486 7.59343 20.5628C6.99825 20.8124 6.45106 20.8796 5.95187 20.7644C5.47188 20.6684 5.12629 20.4668 4.91509 20.1596C4.76149 19.91 4.6463 19.622 4.5695 19.2957C4.4927 18.9501 4.4351 18.6045 4.3967 18.2589C4.3775 17.8941 4.3679 17.5485 4.3679 17.2221C4.3871 16.8765 4.3967 16.5789 4.3967 16.3293C4.4159 15.5229 4.4255 14.611 4.4255 13.5934C4.4447 12.5566 4.4543 11.5198 4.4543 10.483H4.02231C3.79192 10.483 3.49432 10.483 3.12953 10.483C2.78394 10.4638 2.42875 10.435 2.06395 10.3966C1.71836 10.3391 1.39197 10.2719 1.08478 10.1951C0.777583 10.0991 0.556788 9.96466 0.422391 9.79186C0.211195 9.54227 0.0767984 9.27347 0.0191996 8.98548C-0.0191996 8.69749 -4.66461e-09 8.42869 0.0767983 8.1791C0.172796 7.9103 0.316793 7.67991 0.508789 7.48791C0.700785 7.27672 0.92158 7.14232 1.17117 7.08472C1.51677 6.98872 2.00636 6.94073 2.63994 6.94073C3.27353 6.92153 3.86871 6.92153 4.4255 6.94073C4.4063 6.74873 4.3967 6.56633 4.3967 6.39354C4.3967 6.20154 4.3871 6.01915 4.3679 5.84635C4.3487 5.61596 4.3391 5.32796 4.3391 4.98237C4.3391 4.61758 4.3583 4.26238 4.3967 3.91679C4.4543 3.552 4.5407 3.21601 4.6559 2.90881C4.7711 2.58242 4.93429 2.33283 5.14549 2.16003C5.43348 1.92964 5.72147 1.80484 6.00947 1.78564C6.31666 1.74724 6.59505 1.78564 6.84465 1.90084C7.11344 2.01603 7.33424 2.18883 7.50704 2.41923C7.69903 2.63042 7.83343 2.87041 7.91023 3.13921C7.96782 3.3696 8.01582 3.648 8.05422 3.97439C8.09262 4.28158 8.11182 4.60798 8.11182 4.95357C8.13102 5.29916 8.14062 5.64475 8.14062 5.99035C8.14062 6.33594 8.14062 6.65273 8.14062 6.94073H8.42861C8.71661 6.94073 9.0526 6.93113 9.43659 6.91193C9.82058 6.89273 10.195 6.90233 10.5598 6.94073C10.9438 6.97912 11.2894 7.07512 11.5965 7.22872C11.9037 7.36312 12.1341 7.60311 12.2877 7.9487Z" fill="#4F46E5"/>
</svg>
